<?xml version="1.0" encoding="UTF-8" standalone="no"?>
<!-- Created with Inkscape (http://www.inkscape.org/) -->

<svg
   width="500mm"
   height="500mm"
   viewBox="0 0 500 500"
   version="1.1"
   id="svg1"
   xml:space="preserve"
   inkscape:version="1.4.3 (0d15f75, 2025-12-25)"
   sodipodi:docname="icon-vector-transparent.svg"
   xmlns:inkscape="http://www.inkscape.org/namespaces/inkscape"
   xmlns:sodipodi="http://sodipodi.sourceforge.net/DTD/sodipodi-0.dtd"
   xmlns="http://www.w3.org/2000/svg"
   xmlns:svg="http://www.w3.org/2000/svg"><sodipodi:namedview
     id="namedview1"
     pagecolor="#505050"
     bordercolor="#eeeeee"
     borderopacity="1"
     inkscape:showpageshadow="0"
     inkscape:pageopacity="0"
     inkscape:pagecheckerboard="0"
     inkscape:deskcolor="#505050"
     inkscape:document-units="mm"
     inkscape:zoom="0.39063903"
     inkscape:cx="779.492"
     inkscape:cy="920.28695"
     inkscape:current-layer="layer1" /><defs
     id="defs1" /><g
     inkscape:label="Layer 1"
     inkscape:groupmode="layer"
     id="layer1"><g
       id="g79"><path
         id="path80"
         style="fill:#2b0d41;fill-opacity:1;stroke:#2b0d41;stroke-width:10;stroke-dasharray:none;stroke-opacity:1"
         d="M 249.01928,54.49592 C 207.0679,54.900571 165.56089,69.407961 132.01342,94.492014 103.38955,115.83402 80.323199,144.75662 66.60426,177.77144 c -18.707292,44.9326 -20.073569,96.74738 -4.064547,142.68575 11.846841,34.27451 33.34658,65.11882 61.297257,88.20647 24.41724,20.20862 53.74298,34.37835 84.68675,41.17733 37.30916,8.27405 76.9569,6.00084 112.96712,-6.86358 38.51418,-13.68433 72.78109,-39.08498 96.99477,-72.02039 18.39835,-24.94454 30.97567,-54.23856 35.83056,-84.87836 3.15846,-19.75309 3.05286,-40.01267 -0.10353,-59.75852 -1.53539,-9.40194 -3.73702,-18.70706 -6.78807,-27.73393 -3.60982,-10.10551 -8.74866,-19.80896 -16.01173,-27.77137 -3.04548,-3.15442 -7.22906,-5.62376 -11.73945,-5.41988 -5.05043,0.23783 -9.83449,4.28343 -10.39435,9.39979 -0.27053,1.79507 -0.42388,3.65621 -0.52148,5.45703 -3.55156,-0.98133 -7.82886,0.68717 -9.31875,4.16381 -1.42002,2.97477 -0.80924,6.51542 0.71,9.32738 2.3108,4.94778 5.10847,9.66603 6.38671,15.01569 2.76628,10.14019 6.03229,20.15446 7.34505,30.61851 3.11012,21.70122 1.80261,44.13578 -4.80562,65.12406 -6.40112,20.51945 -17.5951,39.48227 -32.26434,55.21496 -24.97008,26.95966 -59.10768,44.90592 -95.22354,51.2987 -15.77247,2.79886 -32.01863,3.42013 -47.98407,1.63418 -19.51667,-2.16159 -38.62034,-7.98516 -55.95813,-17.28448 -20.82274,-11.09021 -38.79441,-27.11335 -53.00899,-45.87498 -8.82559,-11.72025 -16.33651,-24.48287 -21.81297,-38.11046 -5.817023,-14.35964 -9.432637,-29.63771 -10.430422,-45.11781 -1.187526,-17.94394 0.977022,-36.01608 6.244766,-53.21589 7.657066,-25.13773 21.684426,-48.27381 40.111016,-67.02747 11.89093,-12.10903 25.57314,-22.39591 40.56788,-30.35213 15.74027,-8.3397 32.96255,-14.01327 50.63136,-16.475486 14.81809,-2.08127 30.02449,-1.863463 44.79061,0.556491 19.74608,3.176535 38.68921,10.391975 56.14565,20.127515 10.96735,6.04399 21.16228,13.4359 31.43929,20.61283 8.30906,5.83384 16.52484,11.81011 25.0176,17.37067 4.69661,2.25348 10.89189,-0.61871 12.46028,-5.52448 1.89117,-5.07215 1.69555,-10.6067 1.28437,-15.91547 -0.76557,-8.04789 -2.77776,-16.17089 -7.17541,-23.04309 -2.46118,-3.80877 -5.76114,-7.02751 -9.50606,-9.56788 C 379.42327,100.23226 374.22562,96.97383 368.9867,93.794423 358.53564,87.552758 347.77804,81.847728 337.15663,75.903081 310.13969,61.642309 279.56398,54.240895 249.01928,54.49592 Z" /><path
         id="path81"
         style="fill:#e3591e;fill-opacity:1;stroke-width:1.84536"
         d="m 438.60042,87.920502 c -5.32527,0.520537 -9.92064,3.153234 -14.70848,4.981331 -27.69573,11.685857 -55.29347,23.561767 -82.53541,36.033387 -2.9597,1.45396 -6.21393,2.81474 -8.20476,5.32189 -3.28982,4.19821 -2.94226,10.3312 0.86344,14.15763 3.35207,3.88553 8.35015,6.25513 13.079,8.63639 0.49052,0.22976 1.20198,0.41578 0.50503,0.88065 -32.84114,40.87599 -69.02193,79.57044 -103.66839,119.27288 -2.37639,2.71942 -4.74036,5.45046 -7.1023,8.18122 -13.34439,-12.39898 -27.35095,-24.24299 -41.59288,-35.85022 -13.40963,-10.90871 -27.0469,-21.6016 -40.71411,-32.26234 -10.3164,-7.96831 -20.695,-15.88623 -31.47089,-23.38073 -4.72521,-3.05169 -10.13772,-5.634 -16.08306,-6.11807 -6.16985,-0.35618 -12.247657,2.29985 -16.16197,6.39125 -5.756574,5.35689 -11.019425,11.09469 -16.493573,16.66799 -2.348282,2.46928 -4.779374,4.91128 -6.689607,7.66245 -2.684902,4.85076 -1.826379,10.8275 1.495628,15.27725 3.924029,5.82511 9.684589,10.43078 15.013627,15.24583 15.934535,13.88314 32.156535,27.5132 48.032575,41.44619 28.12642,24.5208 55.81781,49.42501 84.37821,73.5625 4.48142,3.70351 8.9407,7.53509 14.28324,10.295 6.50757,3.21611 14.52626,4.42335 21.75013,2.46263 5.82349,-1.60998 10.65596,-5.10173 14.88753,-8.83732 5.90455,-5.27771 11.16518,-11.06536 16.32415,-16.89957 7.52365,-8.60225 14.82513,-17.35425 22.20005,-26.05595 25.69436,-30.42362 51.35697,-60.86806 76.95137,-91.3544 10.49443,-12.52502 20.95855,-25.06875 31.39138,-37.63318 6.96459,3.94084 13.62185,8.35438 21.08512,11.57207 3.96211,1.40369 8.92738,1.05934 12.17943,-1.50595 3.00677,-2.23 4.26092,-5.85441 3.8972,-9.21505 0.14232,-32.56606 0.7454,-65.12893 1.12568,-97.69289 0.0286,-1.75537 -0.42594,-3.515431 -1.44572,-5.03712 -2.43888,-3.883937 -7.50296,-6.384139 -12.57164,-6.205748 z" /></g><path
       style="fill:#e3591e;fill-opacity:1;stroke:#e3591e;stroke-width:20;stroke-linecap:round;stroke-linejoin:round;stroke-dasharray:none;stroke-opacity:1;paint-order:stroke fill markers"
       d="M 321.72177,132.75257 449.05588,214.02965 444.99202,87.372861 Z"
       id="path82"
       sodipodi:nodetypes="cccc" /></g></svg>
